<svg xmlns="http://www.w3.org/2000/svg" width="408" height="612" viewBox="0 0 408 612" version="1.1">
	<path d="M 91 210.548 C 91 210.850, 95.123 218.612, 100.162 227.798 C 105.200 236.984, 110.431 246.525, 111.785 249 C 113.139 251.475, 115.036 254.850, 116 256.500 C 116.964 258.150, 118.857 261.525, 120.207 264 C 125.044 272.871, 145.304 309.580, 147.525 313.500 C 151.316 320.187, 161.159 328.733, 169.738 332.786 C 177.208 336.315, 177.914 336.453, 188.500 336.456 C 203.414 336.460, 208.991 334.318, 218.001 325.130 C 227.501 315.440, 230.326 306.035, 227.110 294.792 C 225.606 289.534, 220.291 282.719, 215.937 280.467 L 213.075 278.987 216.287 284.155 C 219.258 288.933, 219.499 289.972, 219.488 297.912 C 219.474 307.992, 217.650 312.374, 210.945 318.431 C 204.188 324.535, 198.883 326.479, 188.948 326.490 C 181.063 326.499, 179.801 326.206, 172.763 322.728 C 163.814 318.304, 159.008 313.332, 152.875 302.149 C 150.567 297.942, 147.852 293.038, 146.840 291.250 C 145.828 289.462, 144.172 286.538, 143.161 284.750 C 142.149 282.962, 137.126 273.850, 131.999 264.500 C 116.497 236.231, 114.943 233.431, 110.634 226 C 109.199 223.525, 108.019 221.162, 108.012 220.750 C 108.005 220.338, 110.600 220, 113.777 220 C 120.623 220, 122.962 221.373, 126.553 227.500 C 128.680 231.130, 130.117 232.274, 134.699 233.989 C 137.759 235.134, 140.457 235.877, 140.693 235.640 C 140.930 235.404, 138.508 230.364, 135.312 224.442 C 127.442 209.860, 127.730 210.008, 107.250 210.004 C 98.313 210.002, 91 210.247, 91 210.548   M 195.959 211.927 C 185.120 215.339, 176.034 221.667, 169.293 230.500 C 157.559 245.875, 154.504 264.610, 161.140 280.500 C 167.075 294.711, 181.597 303.753, 194.159 301.059 C 199.118 299.996, 204.452 297.695, 205.359 296.229 C 205.626 295.797, 202.764 295.617, 198.999 295.830 C 193.279 296.153, 191.278 295.807, 186.827 293.724 C 180.004 290.531, 174.794 285.317, 171.284 278.169 C 168.802 273.115, 168.500 271.414, 168.500 262.500 C 168.500 253.154, 168.723 252.044, 171.907 245.528 C 175.938 237.278, 183.511 229.295, 190.817 225.593 C 201.499 220.180, 203.541 220, 254.283 220 L 301.147 220 297.923 225.750 C 296.150 228.912, 293.619 232.963, 292.299 234.750 C 290.006 237.854, 289.598 238, 283.199 238 L 276.500 238.001 272.124 243.082 L 267.748 248.164 280.624 247.832 C 296.939 247.411, 297.680 246.952, 305.791 232.222 C 309.039 226.325, 313.157 218.912, 314.944 215.750 L 318.191 210 259.845 210.091 C 207.298 210.173, 200.949 210.356, 195.959 211.927   M 209.845 250.485 C 202.170 253.308, 196.229 258.586, 192.944 265.500 C 190.875 269.856, 190.217 282.398, 192 283.500 C 192.574 283.855, 193.009 282.923, 193.022 281.309 C 193.055 277.038, 196.400 270.562, 200.636 266.566 C 212.314 255.551, 232.438 256.806, 245.224 269.346 C 255.830 279.748, 259.761 295.895, 255.067 309.782 C 254.004 312.927, 247.659 325.175, 240.967 337 C 234.275 348.825, 226.643 362.325, 224.006 367 C 210.736 390.529, 207.171 396.487, 206.449 396.342 C 206.016 396.255, 203.825 392.776, 201.581 388.611 L 197.500 381.038 200.778 374.769 C 202.581 371.321, 204.044 367.840, 204.028 367.033 C 203.985 364.774, 200.826 357, 199.951 357 C 198.868 357, 187 378.485, 187 380.445 C 187 382.100, 192.220 392.681, 198.620 404 C 200.642 407.575, 202.933 411.729, 203.711 413.230 C 206.284 418.193, 206.636 417.944, 212.901 406.750 C 214.056 404.688, 215.833 401.538, 216.851 399.750 C 217.869 397.962, 222.541 389.750, 227.234 381.500 C 231.926 373.250, 236.793 364.700, 238.048 362.500 C 239.302 360.300, 242.220 355.125, 244.530 351 C 246.840 346.875, 249.768 341.700, 251.035 339.500 C 264.550 316.037, 267 309.506, 267 296.935 C 267 275.541, 253.203 256.517, 233.310 250.481 C 227.371 248.679, 214.750 248.681, 209.845 250.485" stroke="none" fill="#e5e5e5" fill-rule="evenodd"/>
</svg>